<svg xmlns="http://www.w3.org/2000/svg" version="1.1" xmlns:xlink="http://www.w3.org/1999/xlink" xmlns:svgjs="http://svgjs.dev/svgjs" width="1000" height="252" viewBox="0 0 1000 252"><g transform="matrix(1,0,0,1,-0.6060606060606801,-0.45085467625897024)"><svg viewBox="0 0 396 100" data-background-color="#ffffff" preserveAspectRatio="xMidYMid meet" height="252" width="1000" xmlns="http://www.w3.org/2000/svg" xmlns:xlink="http://www.w3.org/1999/xlink"><g id="tight-bounds" transform="matrix(1,0,0,1,0.24000000000003752,0.1789105858170501)"><svg viewBox="0 0 395.5199999999999 99.64217882836587" height="99.64217882836587" width="395.5199999999999"><g><svg viewBox="0 0 395.5199999999999 99.64217882836587" height="99.64217882836587" width="395.5199999999999"><g><svg viewBox="0 0 395.5199999999999 99.64217882836587" height="99.64217882836587" width="395.5199999999999"><g><svg viewBox="0 0 395.5199999999999 99.64217882836587" height="99.64217882836587" width="395.5199999999999"><g><svg viewBox="0 0 395.5199999999999 99.64217882836587" height="99.64217882836587" width="395.5199999999999"><g transform="matrix(1,0,0,1,0,0)"><svg width="395.5199999999999" viewBox="1.37 -42.19 190.03 47.879999999999995" height="99.64217882836587" data-palette-color="#8d021f"><path d="M23.34-15.58L25.61-11.94 23.8-11.5 21.85-14.65 23.34-15.58ZM34.47 5.69L31.69 1.17 33.33 0.46 35.96 4.74 34.47 5.69ZM26.37-17.41L28.74-13.57 27.27-12.65 24.88-16.48 26.37-17.41ZM37.43 3.81L34.89-0.34 36.38-1.27 38.92 2.86 37.43 3.81ZM29.35-19.29L31.15-16.36 30.08-14.75 27.88-18.29 29.35-19.29ZM40.41 1.9L37.82-2.27 39.16-3.47 41.89 0.95 40.41 1.9ZM16.5-27.05Q13.67-24.22 13.67-20.21 13.67-16.21 16.5-13.38 19.34-10.55 23.34-10.55 27.34-10.55 30.18-13.38 33.01-16.21 33.01-20.21 33.01-24.22 30.18-27.05 27.34-29.88 23.34-29.88 19.34-29.88 16.5-27.05ZM12.82-15.78Q11.91-17.9 11.91-20.21 11.91-22.53 12.82-24.65 13.72-26.76 15.26-28.3 16.8-29.83 18.91-30.74 21.02-31.64 23.34-31.64 25.66-31.64 27.77-30.74 29.88-29.83 31.42-28.3 32.96-26.76 33.86-24.65 34.77-22.53 34.77-20.21 34.77-17.9 33.86-15.78 32.96-13.67 31.42-12.13 29.88-10.6 27.77-9.69 25.66-8.79 23.34-8.79 21.02-8.79 18.91-9.69 16.8-10.6 15.26-12.13 13.72-13.67 12.82-15.78ZM11.93-26.83Q10.16-23.8 10.16-20.21 10.16-16.63 11.93-13.6 13.7-10.57 16.72-8.8 19.75-7.03 23.34-7.03 26.93-7.03 29.96-8.8 32.98-10.57 34.75-13.6 36.52-16.63 36.52-20.21 36.52-23.8 34.75-26.83 32.98-29.86 29.96-31.63 26.93-33.4 23.34-33.4 19.75-33.4 16.72-31.63 13.7-29.86 11.93-26.83ZM10.4-12.72Q8.4-16.16 8.4-20.21 8.4-24.27 10.4-27.71 12.4-31.15 15.84-33.15 19.29-35.16 23.34-35.16 27.39-35.16 30.83-33.15 34.28-31.15 36.28-27.71 38.28-24.27 38.28-20.21 38.28-16.16 36.28-12.72 34.28-9.28 30.83-7.28 27.39-5.27 23.34-5.27 19.29-5.27 15.84-7.28 12.4-9.28 10.4-12.72ZM7.96-26.71Q6.64-23.61 6.64-20.21 6.64-16.82 7.96-13.72 9.28-10.62 11.51-8.39 13.75-6.15 16.85-4.83 19.95-3.52 23.34-3.52 26.73-3.52 29.83-4.83 32.93-6.15 35.17-8.39 37.4-10.62 38.72-13.72 40.04-16.82 40.04-20.21 40.04-23.61 38.72-26.71 37.4-29.81 35.17-32.04 32.93-34.28 29.83-35.6 26.73-36.91 23.34-36.91 19.95-36.91 16.85-35.6 13.75-34.28 11.51-32.04 9.28-29.81 7.96-26.71ZM7.36-10.96Q4.88-15.21 4.88-20.21 4.88-25.22 7.36-29.47 9.84-33.72 14.09-36.19 18.33-38.67 23.34-38.67 28.34-38.67 32.59-36.19 36.84-33.72 39.32-29.47 41.8-25.22 41.8-20.21 41.8-15.21 39.32-10.96 36.84-6.71 32.59-4.24 28.34-1.76 23.34-1.76 18.33-1.76 14.09-4.24 9.84-6.71 7.36-10.96ZM4.72-28.06Q3.13-24.32 3.13-20.21 3.13-16.11 4.72-12.37 6.32-8.62 9.03-5.91 11.74-3.2 15.49-1.6 19.24 0 23.34 0 27.44 0 31.19-1.6 34.94-3.2 37.65-5.91 40.36-8.62 41.96-12.37 43.55-16.11 43.55-20.21 43.55-24.32 41.96-28.06 40.36-31.81 37.65-34.52 34.94-37.23 31.19-38.83 27.44-40.43 23.34-40.43 19.24-40.43 15.49-38.83 11.74-37.23 9.03-34.52 6.32-31.81 4.72-28.06ZM3.11-11.68Q1.37-15.75 1.37-20.21 1.37-24.68 3.11-28.75 4.86-32.81 7.8-35.75 10.74-38.7 14.81-40.44 18.87-42.19 23.34-42.19 27.81-42.19 31.87-40.44 35.94-38.7 38.88-35.75 41.82-32.81 43.57-28.75 45.31-24.68 45.31-20.21 45.31-15.75 43.57-11.68 41.82-7.62 38.88-4.68 35.94-1.73 31.87 0.01 27.81 1.76 23.34 1.76 18.87 1.76 14.81 0.01 10.74-1.73 7.8-4.68 4.86-7.62 3.11-11.68ZM77.63-17.77L77.63-17.77 77.63-40.43 79.39-40.43 79.39-17.77Q79.39-14.06 76.46-11.43 73.53-8.79 69.43-8.79 65.33-8.79 62.4-11.43 59.47-14.06 59.47-17.77L59.47-17.77 59.47-40.43 61.23-40.43 61.23-17.77Q61.23-14.79 63.63-12.67 66.04-10.55 69.43-10.55 72.82-10.55 75.23-12.67 77.63-14.79 77.63-17.77ZM81.15-17.77L81.15-17.77 81.15-40.43 82.91-40.43 82.91-17.77Q82.91-15.23 81.83-12.93 80.76-10.62 78.95-8.94 77.15-7.25 74.66-6.26 72.17-5.27 69.43-5.27 66.7-5.27 64.21-6.26 61.72-7.25 59.91-8.94 58.1-10.62 57.03-12.93 55.95-15.23 55.95-17.77L55.95-17.77 55.95-40.43 57.71-40.43 57.71-17.77Q57.71-14.87 59.29-12.39 60.86-9.91 63.56-8.47 66.26-7.03 69.43-7.03 72.6-7.03 75.3-8.47 78-9.91 79.58-12.39 81.15-14.87 81.15-17.77ZM84.67-17.77L84.67-17.77 84.67-40.43 86.42-40.43 86.42-17.77Q86.42-14.53 85.07-11.56 83.71-8.59 81.44-6.45 79.17-4.3 76.02-3.03 72.87-1.76 69.43-1.76 65.99-1.76 62.84-3.03 59.69-4.3 57.42-6.45 55.15-8.59 53.79-11.56 52.44-14.53 52.44-17.77L52.44-17.77 52.44-40.43 54.2-40.43 54.2-17.77Q54.2-13.92 56.25-10.63 58.3-7.35 61.8-5.43 65.31-3.52 69.43-3.52 73.56-3.52 77.06-5.43 80.56-7.35 82.61-10.63 84.67-13.92 84.67-17.77ZM88.18-17.77L88.18-17.77 88.18-40.43 89.94-40.43 89.94-17.77Q89.94-12.5 87.18-8 84.42-3.49 79.7-0.87 74.97 1.76 69.43 1.76 63.89 1.76 59.16-0.87 54.44-3.49 51.68-8 48.92-12.5 48.92-17.77L48.92-17.77 48.92-40.43 50.68-40.43 50.68-17.77Q50.68-14.18 52.17-10.89 53.66-7.59 56.17-5.21 58.69-2.83 62.17-1.42 65.65 0 69.43 0 73.22 0 76.69-1.42 80.17-2.83 82.69-5.21 85.2-7.59 86.69-10.89 88.18-14.18 88.18-17.77ZM104.98 0L104.98-40.43 106.73-40.43 106.73 0 104.98 0ZM101.46 0L101.46-40.43 103.22-40.43 103.22 0 101.46 0ZM97.94 0L97.94-40.43 99.7-40.43 99.7 0 97.94 0ZM94.43 0L94.43-40.43 96.19-40.43 96.19 0 94.43 0ZM141.89-26.61L141.89-26.61 140.45-25.66Q139.13-27.61 137.02-28.75 134.9-29.88 132.44-29.88L132.44-29.88Q128.43-29.88 125.6-27.05 122.77-24.22 122.77-20.21 122.77-16.21 125.6-13.38 128.43-10.55 132.44-10.55L132.44-10.55Q134.9-10.55 137.02-11.69 139.13-12.84 140.45-14.79L140.45-14.79 141.86-13.77Q140.3-11.47 137.81-10.13 135.32-8.79 132.44-8.79L132.44-8.79Q130.12-8.79 128.01-9.69 125.9-10.6 124.36-12.13 122.82-13.67 121.92-15.78 121.01-17.9 121.01-20.21 121.01-22.53 121.92-24.65 122.82-26.76 124.36-28.3 125.9-29.83 128.01-30.74 130.12-31.64 132.44-31.64L132.44-31.64Q135.34-31.64 137.83-30.29 140.32-28.93 141.89-26.61ZM144.79-28.61L144.79-28.61 143.33-27.66Q141.52-30.3 138.65-31.85 135.78-33.4 132.44-33.4L132.44-33.4Q128.85-33.4 125.82-31.63 122.8-29.86 121.03-26.83 119.26-23.8 119.26-20.21 119.26-16.63 121.03-13.6 122.8-10.57 125.82-8.8 128.85-7.03 132.44-7.03L132.44-7.03Q135.78-7.03 138.66-8.59 141.55-10.16 143.35-12.82L143.35-12.82 144.79-11.82Q142.74-8.79 139.48-7.03 136.22-5.27 132.44-5.27L132.44-5.27Q128.39-5.27 124.94-7.28 121.5-9.28 119.5-12.72 117.5-16.16 117.5-20.21 117.5-24.27 119.5-27.71 121.5-31.15 124.94-33.15 128.39-35.16 132.44-35.16L132.44-35.16Q136.22-35.16 139.48-33.4 142.74-31.64 144.79-28.61ZM147.72-30.57L147.72-30.57 146.26-29.61Q143.96-32.98 140.31-34.95 136.66-36.91 132.44-36.91L132.44-36.91Q129.05-36.91 125.94-35.6 122.84-34.28 120.61-32.04 118.38-29.81 117.06-26.71 115.74-23.61 115.74-20.21 115.74-16.82 117.06-13.72 118.38-10.62 120.61-8.39 122.84-6.15 125.94-4.83 129.05-3.52 132.44-3.52L132.44-3.52Q136.69-3.52 140.32-5.49 143.96-7.47 146.26-10.84L146.26-10.84 147.67-9.79Q145.13-6.08 141.12-3.92 137.1-1.76 132.44-1.76L132.44-1.76Q127.43-1.76 123.19-4.24 118.94-6.71 116.46-10.96 113.98-15.21 113.98-20.21 113.98-25.22 116.46-29.47 118.94-33.72 123.19-36.19 127.43-38.67 132.44-38.67L132.44-38.67Q137.13-38.67 141.15-36.49 145.18-34.3 147.72-30.57ZM150.6-32.57L150.6-32.57 149.14-31.62Q146.35-35.69 141.95-38.06 137.54-40.43 132.44-40.43L132.44-40.43Q128.34-40.43 124.59-38.83 120.84-37.23 118.13-34.52 115.42-31.81 113.82-28.06 112.22-24.32 112.22-20.21 112.22-16.11 113.82-12.37 115.42-8.62 118.13-5.91 120.84-3.2 124.59-1.6 128.34 0 132.44 0L132.44 0Q137.54 0 141.96-2.39 146.38-4.79 149.16-8.86L149.16-8.86 150.58-7.79Q147.55-3.39 142.77-0.82 137.98 1.76 132.44 1.76L132.44 1.76Q127.97 1.76 123.91 0.01 119.84-1.73 116.9-4.68 113.96-7.62 112.21-11.68 110.47-15.75 110.47-20.21 110.47-24.68 112.21-28.75 113.96-32.81 116.9-35.75 119.84-38.7 123.91-40.44 127.97-42.19 132.44-42.19L132.44-42.19Q138.01-42.19 142.79-39.6 147.58-37.01 150.6-32.57ZM166.27-40.43L166.27 0 164.52 0 164.52-40.43 166.27-40.43ZM162.76-40.43L162.76 0 161 0 161-40.43 162.76-40.43ZM159.24-40.43L159.24 0 157.49 0 157.49-40.43 159.24-40.43ZM155.73-40.43L155.73 0 153.97 0 153.97-40.43 155.73-40.43ZM189.44 0L179.12-20.21 189.44-40.43 191.4-40.43 181.07-20.21 191.4 0 189.44 0ZM185.51 0L175.19-20.21 185.51-40.43 187.47-40.43 177.14-20.21 187.47 0 185.51 0ZM181.58 0L171.25-20.21 181.58-40.43 183.53-40.43 173.21-20.21 183.53 0 181.58 0ZM177.65 0L167.3-20.21 177.65-40.43 179.6-40.43 169.25-20.21 179.6 0 177.65 0Z" opacity="1" transform="matrix(1,0,0,1,0,0)" fill="#8d021f" class="undefined-text-0" data-fill-palette-color="primary" id="text-0"></path></svg></g></svg></g></svg></g></svg></g></svg></g><defs></defs></svg><rect width="395.5199999999999" height="99.64217882836587" fill="none" stroke="none" visibility="hidden"></rect></g></svg></g></svg>